<?xml version="1.0" encoding="utf-8"?>
<!-- Generator: Adobe Illustrator 16.0.0, SVG Export Plug-In . SVG Version: 6.00 Build 0)  -->
<!DOCTYPE svg PUBLIC "-//W3C//DTD SVG 1.1//EN" "http://www.w3.org/Graphics/SVG/1.1/DTD/svg11.dtd">
<svg version="1.1" id="Layer_1" xmlns="http://www.w3.org/2000/svg" xmlns:xlink="http://www.w3.org/1999/xlink" x="0px" y="0px"
	 width="288px" height="432px" viewBox="0 0 288 432" enable-background="new 0 0 288 432" xml:space="preserve">
<ellipse fill="none" stroke="#000000" stroke-width="2" stroke-linecap="round" stroke-linejoin="round" stroke-miterlimit="10" stroke-dasharray="11.2853" cx="143.062" cy="216" rx="105.514" ry="138.378"/>
<g>
	<path fill-rule="evenodd" clip-rule="evenodd" d="M34.201,234.536c-0.113,0.191-0.002,0.629,0.152,0.85
		c3.581,5.14,1.979,12.408-2.609,16.277c-3.403,2.875-7.268,3.906-11.489,1.982c-4.244-1.938-6.345-6.559-5.423-11.68
		c1.241-6.89,7.285-11.086,12.649-10.541c0.367,0.037,0.944-0.311,1.153-0.648c2.041-3.285,4.012-6.617,6.042-9.912
		c0.319-0.518,0.272-0.869-0.027-1.357c-1.721-2.806-3.407-5.631-5.106-8.449c-3.248-5.389-6.51-10.769-9.743-16.167
		c-1.878-3.135-0.831-7.139,2.345-8.869c0.226,0.354,0.461,0.709,0.683,1.075c8.786,14.548,17.575,29.096,26.345,43.654
		c0.348,0.575,0.72,0.762,1.385,0.723c0.859-0.055,1.75-0.053,2.59,0.115c6.35,1.275,10.869,7.652,10.04,14.102
		c-0.809,6.287-6.417,10.18-12.386,8.518c-8.005-2.23-11.82-12.252-7.315-18.783c0.175-0.256,0.245-0.781,0.102-1.027
		c-1.474-2.527-3.003-5.024-4.646-7.746C37.274,229.405,35.716,231.957,34.201,234.536z M28.48,237.438
		c-1.76-0.965-3.432-0.515-4.992,0.521c-2.603,1.729-3.92,5.257-3.051,8.067c0.716,2.315,2.833,3.473,5.182,2.835
		c2.888-0.787,5.096-3.828,5.109-7.568C30.698,239.991,30.195,238.376,28.48,237.438z M53.062,237.261
		c-2.619-0.97-4.995,0.254-5.72,2.947c-0.861,3.203,1.102,7.152,4.182,8.414c3.291,1.352,6.16-0.694,6.168-4.397
		C57.698,241.192,55.746,238.255,53.062,237.261z"/>
	<path fill-rule="evenodd" clip-rule="evenodd" d="M45.614,215.561c1.319-2.187,2.528-4.194,3.739-6.2
		c2.897-4.796,5.812-9.583,8.687-14.396c1.918-3.209,0.856-7.316-2.308-8.924c-0.188,0.294-0.388,0.589-0.572,0.893
		c-4.303,7.118-8.596,14.241-12.921,21.344c-0.388,0.637-0.415,1.104-0.01,1.738C43.357,211.782,44.418,213.589,45.614,215.561z"/>
</g>
</svg>
