<?xml version="1.0" encoding="utf-8"?>
<!-- Generator: Adobe Illustrator 16.0.0, SVG Export Plug-In . SVG Version: 6.00 Build 0)  -->
<!DOCTYPE svg PUBLIC "-//W3C//DTD SVG 1.1//EN" "http://www.w3.org/Graphics/SVG/1.1/DTD/svg11.dtd">
<svg version="1.1" id="Layer_1" xmlns="http://www.w3.org/2000/svg" xmlns:xlink="http://www.w3.org/1999/xlink" x="0px" y="0px"
	 width="288px" height="432px" viewBox="0 0 288 432" enable-background="new 0 0 288 432" xml:space="preserve">
<g>
	
		<circle fill="none" stroke="#000000" stroke-width="2" stroke-linecap="round" stroke-linejoin="round" stroke-dasharray="10.6713,10.6713" cx="141.998" cy="219.984" r="98.503"/>
</g>
<g>
	<path fill-rule="evenodd" clip-rule="evenodd" d="M38.379,249.029c-0.122,0.207-0.001,0.678,0.165,0.916
		c3.856,5.535,2.13,13.363-2.811,17.531c-3.666,3.096-7.828,4.207-12.375,2.135c-4.571-2.086-6.834-7.064-5.841-12.58
		c1.337-7.42,7.847-11.939,13.624-11.354c0.396,0.041,1.017-0.334,1.242-0.697c2.199-3.539,4.321-7.127,6.508-10.676
		c0.345-0.559,0.293-0.938-0.029-1.463c-1.854-3.021-3.67-6.064-5.5-9.1c-3.499-5.805-7.012-11.6-10.494-17.414
		c-2.022-3.377-0.895-7.689,2.525-9.552c0.243,0.381,0.497,0.764,0.735,1.157c9.464,15.669,18.93,31.337,28.375,47.019
		c0.374,0.619,0.775,0.82,1.491,0.777c0.926-0.059,1.886-0.057,2.79,0.125c6.839,1.373,11.707,8.242,10.813,15.188
		c-0.871,6.771-6.911,10.965-13.34,9.174c-8.622-2.402-12.732-13.195-7.88-20.23c0.188-0.275,0.265-0.842,0.109-1.105
		c-1.587-2.723-3.233-5.412-5.004-8.344C41.689,243.504,40.011,246.252,38.379,249.029z M32.218,252.154
		c-1.895-1.039-3.695-0.555-5.377,0.561c-2.803,1.861-4.223,5.662-3.286,8.689c0.771,2.494,3.052,3.74,5.581,3.053
		c3.11-0.848,5.488-4.123,5.503-8.15C34.606,254.904,34.064,253.166,32.218,252.154z M58.693,251.965
		c-2.821-1.045-5.38,0.273-6.16,3.174c-0.928,3.449,1.186,7.703,4.504,9.062c3.545,1.455,6.635-0.748,6.644-4.736
		C63.688,256.199,61.584,253.035,58.693,251.965z"/>
	<path fill-rule="evenodd" clip-rule="evenodd" d="M50.672,228.592c1.421-2.355,2.724-4.518,4.028-6.678
		c3.12-5.166,6.259-10.322,9.355-15.505c2.065-3.457,0.922-7.88-2.485-9.611c-0.203,0.316-0.418,0.635-0.616,0.962
		c-4.635,7.666-9.259,15.338-13.917,22.989c-0.417,0.686-0.447,1.189-0.011,1.873C48.241,224.521,49.383,226.469,50.672,228.592z"/>
</g>
</svg>
