<?xml version="1.0" encoding="utf-8"?>
<!-- Generator: Adobe Illustrator 16.0.0, SVG Export Plug-In . SVG Version: 6.00 Build 0)  -->
<!DOCTYPE svg PUBLIC "-//W3C//DTD SVG 1.1//EN" "http://www.w3.org/Graphics/SVG/1.1/DTD/svg11.dtd">
<svg version="1.1" class="svg-Layer_1" xmlns="http://www.w3.org/2000/svg" xmlns:xlink="http://www.w3.org/1999/xlink" x="0px" y="0px"
	 width="252px" height="436.211px" viewBox="13.5 0 252 436.211" enable-background="new 13.5 0 252 436.211" xml:space="preserve">
<g class="svg-locket">
	<path fill="none" stroke="#000000" stroke-width="6" stroke-miterlimit="10" d="M154.547,92.901
		c0.602-1.323,1.053-2.744,1.288-4.231l9.952-62.625c1.078-6.782-3.658-12.33-10.525-12.33h-22.523
		c-6.867,0-11.604,5.548-10.525,12.33l9.952,62.625c0.236,1.487,0.687,2.908,1.288,4.231c-6.832,3.735-11.467,10.989-11.467,19.325
		c0,12.157,9.855,22.014,22.014,22.014s22.015-9.856,22.015-22.014C166.014,103.891,161.379,96.637,154.547,92.901z"/>
	<g>
		<path fill="none" stroke="#000000" stroke-width="6" stroke-linecap="round" stroke-linejoin="round" stroke-miterlimit="10" d="
			M36.266,251.09c0.077,0,0.151-0.007,0.228-0.009c0.814-9.488,3.1-18.492,4.967-27.393c-1.214-0.619-3.604-1.212-5.194-1.212
			c-4.141,0-7.498,2.462-7.498,5.5v17.612C28.768,248.627,32.125,251.09,36.266,251.09z"/>
		<path fill="none" stroke="#000000" stroke-width="6" stroke-linecap="round" stroke-linejoin="round" stroke-miterlimit="10" d="
			M36.493,292.614c-0.076-0.003-0.15-0.009-0.228-0.009c-4.141,0-7.498,2.463-7.498,5.5v17.61c0,3.038,3.357,5.5,7.498,5.5
			c1.591,0,3.98-0.838,5.194-1.454C39.593,310.861,37.308,302.104,36.493,292.614z"/>
		<path fill="none" stroke="#000000" stroke-width="6" stroke-linecap="round" stroke-linejoin="round" stroke-miterlimit="10" d="
			M35.606,271.848c0-7.021,0.301-13.938,0.883-20.727c-0.075-0.001-0.148-0.008-0.224-0.008c-4.141,0-7.498,2.463-7.498,5.5v30.492
			c0,3.037,3.357,5.5,7.498,5.5c0.076,0,0.15-0.008,0.226-0.012C35.908,285.803,35.606,278.878,35.606,271.848z"/>
	</g>
	<path fill="none" stroke="#000000" stroke-width="6.6917" stroke-miterlimit="10" d="M161.216,125.771
		c-4.032,4.622-10.243,7.588-17.216,7.588c-6.973,0-13.183-2.966-17.216-7.588c-51.681,11.25-91.178,72.307-91.178,145.954
		c0,81.637,48.53,147.815,108.394,147.815c59.863,0,108.395-66.181,108.395-147.815
		C252.395,198.078,212.896,137.021,161.216,125.771z"/>
</g>
<g class="svg-arrows">
	<g class="svg-arrowhead-left">
		<polygon fill="#939598" points="64.187,280.062 61.04,272.654 64.187,265.249 46.63,272.654 		"/>
	</g>
	<g class="svg-arrowhead-right">
		<polygon fill="#939598" points="225.178,280.062 228.324,272.654 225.178,265.249 242.734,272.654 		"/>
	</g>
	<g class="svg-arrow-line">

			<line fill="none" stroke="#939598" stroke-width="2" stroke-miterlimit="10" stroke-dasharray="6.1324,6.1324" x1="55.762" y1="272.654" x2="236.668" y2="272.654"/>
	</g>
</g>
</svg>
