<?xml version="1.0" encoding="utf-8"?>
<!-- Generator: Adobe Illustrator 16.0.0, SVG Export Plug-In . SVG Version: 6.00 Build 0)  -->
<!DOCTYPE svg PUBLIC "-//W3C//DTD SVG 1.1//EN" "http://www.w3.org/Graphics/SVG/1.1/DTD/svg11.dtd">
<svg version="1.1" class="svg-Layer_1" xmlns="http://www.w3.org/2000/svg" xmlns:xlink="http://www.w3.org/1999/xlink" x="0px" y="0px"
	 width="252px" height="313px" viewBox="13.5 115.211 252 313" enable-background="new 13.5 115.211 252 313" xml:space="preserve">
<g class="svg-locket">
	<path fill="none" stroke="#000000" stroke-width="6" stroke-miterlimit="10" d="M200.588,207.047
		c-14.79,0-28.273,5.811-38.469,15.354c-1.173,9.508-9.272,16.87-19.099,16.87c-9.819,0-17.916-7.354-19.097-16.854
		c-10.197-9.548-23.678-15.369-38.471-15.369c-31.793,0-57.568,26.836-57.568,59.941c0,12.733,3.368,24.65,9.871,34.36l2.71,3.019
		c1.902,2.478,3.979,4.803,6.229,6.939l70.322,78.341c0,0,17.631,20.503,26.003,20.503c8.373,0,25.422-19.854,25.422-19.854
		l70.908-78.995c2.248-2.133,4.321-4.457,6.222-6.934l2.713-3.02c6.504-9.711,9.871-21.626,9.871-34.36
		C258.156,233.885,232.382,207.047,200.588,207.047z"/>
	<path fill="none" stroke="#000000" stroke-width="6" stroke-miterlimit="10" d="M152.244,203.121
		c0.525-1.157,0.92-2.4,1.126-3.701l8.703-54.764c0.942-5.931-3.199-10.783-9.204-10.783h-19.696
		c-6.005,0-10.147,4.852-9.204,10.783l8.703,54.764c0.207,1.301,0.601,2.543,1.126,3.701c-5.975,3.266-10.028,9.609-10.028,16.899
		c0,10.631,8.618,19.251,19.251,19.251s19.251-8.619,19.251-19.251C162.271,212.731,158.218,206.388,152.244,203.121z"/>
	<g>

			<path fill="none" stroke="#000000" stroke-width="6" stroke-linecap="round" stroke-linejoin="round" stroke-miterlimit="10" d="
			M37.756,301.348c-4.32-6.449-7.248-13.877-8.732-21.868c-1.505-0.012-3.189,0.548-4.675,1.674
			c-2.886,2.186-3.925,5.675-2.321,7.792l9.304,12.275c1.382,1.824,4.278,2.03,6.898,0.652L37.756,301.348z"/>

			<path fill="none" stroke="#000000" stroke-width="6" stroke-linecap="round" stroke-linejoin="round" stroke-miterlimit="10" d="
			M62.551,328.97l-15.855-17.663c-2.25-2.135-4.327-4.462-6.229-6.94l-2.061-2.296c-2.046,2.154-2.637,5.006-1.251,6.833
			l16.107,21.251c1.605,2.117,5.245,2.059,8.131-0.128C61.821,329.702,62.205,329.345,62.551,328.97z"/>

			<path fill="none" stroke="#000000" stroke-width="6" stroke-linecap="round" stroke-linejoin="round" stroke-miterlimit="10" d="
			M62.746,329.188c-0.462,0.232-0.917,0.509-1.355,0.84c-2.886,2.188-3.925,5.678-2.32,7.794l9.304,12.274
			c1.604,2.118,5.244,2.061,8.13-0.127c1.057-0.802,1.863-1.778,2.386-2.797L62.746,329.188z"/>
	</g>
</g>
<g class="svg-arrows">
	<g class="svg-arrowhead-left">
		<polygon fill="#939598" points="64.187,280.062 61.04,272.654 64.187,265.249 46.63,272.654 		"/>
	</g>
	<g class="svg-arrowhead-right">
		<polygon fill="#939598" points="225.178,280.062 228.324,272.654 225.178,265.249 242.734,272.654 		"/>
	</g>
	<g class="svg-arrow-line">

			<line fill="none" stroke="#939598" stroke-width="2" stroke-miterlimit="10" stroke-dasharray="6.1324,6.1324" x1="55.762" y1="272.654" x2="236.668" y2="272.654"/>
	</g>
</g>
</svg>
